<svg xmlns="http://www.w3.org/2000/svg" version="1.1" xmlns:xlink="http://www.w3.org/1999/xlink" xmlns:svgjs="http://svgjs.dev/svgjs" width="1500" height="1500" viewBox="0 0 1500 1500"><rect width="1500" height="1500" fill="#000000"></rect><g transform="matrix(0.6666666666666666,0,0,0.6666666666666666,249.39393939393938,438.5856950067477)"><svg viewBox="0 0 396 247" data-background-color="#f4ddf1" preserveAspectRatio="xMidYMid meet" height="935" width="1500" xmlns="http://www.w3.org/2000/svg" xmlns:xlink="http://www.w3.org/1999/xlink"><g id="tight-bounds" transform="matrix(1,0,0,1,0.2400000000000091,-0.09999999999999432)"><svg viewBox="0 0 395.52 247.2" height="247.2" width="395.52"><g><svg></svg></g><g><svg viewBox="0 0 395.52 247.2" height="247.2" width="395.52"><g transform="matrix(1,0,0,1,139.9052053908356,47.215199999999996)"><svg viewBox="0 0 115.70958921832883 152.7696" height="152.7696" width="115.70958921832883"><g><svg viewBox="0 0 115.70958921832883 152.7696" height="152.7696" width="115.70958921832883"><g><svg viewBox="0 0 115.70958921832883 152.7696" height="152.7696" width="115.70958921832883"><g><svg viewBox="0 0 115.70958921832883 152.7696" height="152.7696" width="115.70958921832883"><g id="textblocktransform"><svg viewBox="0 0 115.70958921832883 152.7696" height="152.7696" width="115.70958921832883" id="textblock"><g><svg viewBox="0 0 115.70958921832883 152.7696" height="152.7696" width="115.70958921832883"><g transform="matrix(1,0,0,1,0,0)"><svg width="115.70958921832883" viewBox="4.85 -37.1 28.102272678298 37.1" height="152.7696" data-palette-color="#bb84e8"><path d="M32.85-0.7L32.85-0.7Q33-0.4 32.93-0.2 32.85 0 32.55 0L32.55 0 28.45 0Q27.75 0 27.55-0.45L27.55-0.45 16.5-18.9Q16.2-19.35 15.75-18.85L15.75-18.85 10-12.3Q9.65-11.9 9.65-11.4L9.65-11.4 9.65-0.75Q9.65 0 8.8 0L8.8 0 5.6 0Q5.2 0 5.03-0.15 4.85-0.3 4.85-0.65L4.85-0.65 4.85-36.5Q4.85-37.1 5.4-37.1L5.4-37.1 9.1-37.1Q9.65-37.1 9.65-36.5L9.65-36.5 9.65-18.15Q9.65-17.85 9.75-17.82 9.85-17.8 10.1-18.05L10.1-18.05 26.5-36.65Q26.7-36.9 26.9-37 27.1-37.1 27.5-37.1L27.5-37.1 30.95-37.1Q31.4-37.1 31.5-36.88 31.6-36.65 31.35-36.4L31.35-36.4 19.7-23.4Q19.5-23.1 19.7-22.75L19.7-22.75 32.85-0.7Z" opacity="1" transform="matrix(1,0,0,1,0,0)" fill="#ffffff" class="wordmark-text-0" data-fill-palette-color="primary" id="text-0"></path></svg></g></svg></g></svg></g></svg></g></svg></g></svg></g></svg></g><g><path d="M0 123.6c0-68.262 55.338-123.6 123.6-123.6 30.402 0 58.24 10.976 79.768 29.183l-11.147 0c-19.26-14.022-42.974-22.294-68.621-22.295-64.458 0-116.712 52.254-116.712 116.712 0 64.458 52.254 116.712 116.712 116.712 25.647 0 49.361-8.272 68.621-22.295l11.147 0c-21.528 18.206-49.366 29.183-79.768 29.183-68.262 0-123.6-55.338-123.6-123.6z" fill="#ffffff" stroke="transparent" data-fill-palette-color="tertiary"></path></g></svg></g><defs></defs></svg><rect width="395.52" height="247.2" fill="none" stroke="none" visibility="hidden"></rect></g></svg></g></svg>